/* XPM */
static char *pacman[]={
"47 51 3 1",
". c #000000",
"a c #00beff",
"# c #ffff00",
"...............................................",
"...............................................",
"...............................................",
"...............................................",
"......####............................####.....",
"......####............................####.....",
"....########........................########...",
"....########........................########...",
"....########........................########...",
"....########........................########...",
"......####............................####.....",
"......####............................####.....",
"...............................................",
"...............................................",
"...............................................",
"...............................................",
"...............................................",
"...............................................",
"...............................................",
"...............................................",
"aaaaaaaaaaaaaaaaaaaaaaaaaaaaaaaaaaaaaaaaaaaaaaa",
"aaaaaaaaaaaaaaaaaaaaaaaaaaaaaaaaaaaaaaaaaaaaaaa",
"aaaaaaaaaaaaaaaaaaaaaaaaaaaaaaaaaaaaaaaaaaaaaaa",
"aaaaaaaaaaaaaaaaaaaaaaaaaaaaaaaaaaaaaaaaaaaaaaa",
"aaaaaaaaaaaaaaaaaaaaaaaaaaaaaaaaaaaaaaaaaaaaaaa",
"aaaaaaaaaaaaaaaaaaaaaaaaaaaaaaaaaaaaaaaaaaaaaaa",
"aaaaaaaaaaaaaaaaaaaaaaaaaaaaaaaaaaaaaaaaaaaaaaa",
"aaaaaaaaaaaaaaaaaaaaaaaaaaaaaaaaaaaaaaaaaaaaaaa",
"...............................................",
"...............................................",
"...............................................",
"...............................................",
"....................########...................",
"....................########...................",
"..................####..##.....................",
"..................####..##.....................",
"......####......########..............####.....",
"......####......########..............####.....",
"....########....######..............########...",
"....########....######..............########...",
"....########....######..............########...",
"....########....######..............########...",
"......####......########..............####.....",
"......####......########..............####.....",
"..................########.....................",
"..................########.....................",
"....................########...................",
"....................########...................",
"...............................................",
"...............................................",
"..............................................."};
